HIERARCHY
ROOT Hips
{
	OFFSET 0.000000 89.005402 0.000000
	CHANNELS 6 Xposition Yposition Zposition Xrotation Yrotation Zrotation
	JOINT Spine
	{
		OFFSET 0.116900 10.681000 0.373400
		CHANNELS 3 Xrotation Yrotation Zrotation
		JOINT Spine1
		{
			OFFSET 0.000000 13.840401 0.053500
			CHANNELS 3 Xrotation Yrotation Zrotation
			JOINT Spine2
			{
				OFFSET 0.000000 14.712700 -0.366200
				CHANNELS 3 Xrotation Yrotation Zrotation
				JOINT Neck
				{
					OFFSET 0.000000 35.415497 -3.314200
					CHANNELS 3 Xrotation Yrotation Zrotation
					JOINT Head
					{
						OFFSET 0.000000 16.899200 1.218300
						CHANNELS 3 Xrotation Yrotation Zrotation
						JOINT HeadTop_End
						{
							OFFSET 0.000000 22.206207 2.192500
							CHANNELS 3 Xrotation Yrotation Zrotation
							End Site
							{
								OFFSET 0.000000 22.314178 0.000000
							}
						}
					}
				}
				JOINT LeftShoulder
				{
					OFFSET 12.896400 26.716293 -4.548400
					CHANNELS 3 Xrotation Yrotation Zrotation
					JOINT LeftArm
					{
						OFFSET 19.027000 -4.857010 -1.718400
						CHANNELS 3 Xrotation Yrotation Zrotation
						JOINT LeftForeArm
						{
							OFFSET 24.179897 0.000000 0.000000
							CHANNELS 3 Xrotation Yrotation Zrotation
							JOINT LeftHand
							{
								OFFSET 27.156403 0.000000 0.000000
								CHANNELS 3 Xrotation Yrotation Zrotation
								JOINT LeftHandIndex1
								{
									OFFSET 16.441200 0.000000 0.000000
									CHANNELS 3 Xrotation Yrotation Zrotation
									JOINT LeftHandIndex2
									{
										OFFSET 4.821899 0.000000 0.000000
										CHANNELS 3 Xrotation Yrotation Zrotation
										JOINT LeftHandIndex3
										{
											OFFSET 6.386497 0.000000 0.000000
											CHANNELS 3 Xrotation Yrotation Zrotation
											JOINT LeftHandIndex4
											{
												OFFSET 5.188988 0.000000 0.000000
												CHANNELS 3 Xrotation Yrotation Zrotation
												End Site
												{
													OFFSET -0.178703 5.185913 0.000177
												}
											}
										}
									}
								}
								JOINT LeftHandThumb1
								{
									OFFSET 6.534897 -5.032593 5.900300
									CHANNELS 3 Xrotation Yrotation Zrotation
									JOINT LeftHandThumb2
									{
										OFFSET 3.818176 -2.204422 2.204423
										CHANNELS 3 Xrotation Yrotation Zrotation
										JOINT LeftHandThumb3
										{
											OFFSET 3.252098 -1.877594 1.877601
											CHANNELS 3 Xrotation Yrotation Zrotation
											JOINT LeftHandThumb4
											{
												OFFSET 5.251778 -3.032120 3.032117
												CHANNELS 3 Xrotation Yrotation Zrotation
												End Site
												{
													OFFSET 0.000023 6.780014 0.000000
												}
											}
										}
									}
								}
							}
						}
					}
				}
				JOINT RightShoulder
				{
					OFFSET -12.896300 26.716293 -4.548400
					CHANNELS 3 Xrotation Yrotation Zrotation
					JOINT RightArm
					{
						OFFSET -19.027000 -4.857010 -1.718400
						CHANNELS 3 Xrotation Yrotation Zrotation
						JOINT RightForeArm
						{
							OFFSET -24.179897 0.000000 0.000000
							CHANNELS 3 Xrotation Yrotation Zrotation
							JOINT RightHand
							{
								OFFSET -27.156403 0.000000 0.000000
								CHANNELS 3 Xrotation Yrotation Zrotation
								JOINT RightHandThumb1
								{
									OFFSET -6.591202 -4.852203 5.988100
									CHANNELS 3 Xrotation Yrotation Zrotation
									JOINT RightHandThumb2
									{
										OFFSET -3.818176 -2.204422 2.204423
										CHANNELS 3 Xrotation Yrotation Zrotation
										JOINT RightHandThumb3
										{
											OFFSET -3.252098 -1.877594 1.877601
											CHANNELS 3 Xrotation Yrotation Zrotation
											JOINT RightHandThumb4
											{
												OFFSET -5.251778 -3.032120 3.032117
												CHANNELS 3 Xrotation Yrotation Zrotation
												End Site
												{
													OFFSET -0.000023 6.780014 0.000000
												}
											}
										}
									}
								}
								JOINT RightHandIndex1
								{
									OFFSET -16.029404 0.000000 0.000000
									CHANNELS 3 Xrotation Yrotation Zrotation
									JOINT RightHandIndex2
									{
										OFFSET -5.213303 0.000000 0.000000
										CHANNELS 3 Xrotation Yrotation Zrotation
										JOINT RightHandIndex3
										{
											OFFSET -6.386528 0.000000 0.000000
											CHANNELS 3 Xrotation Yrotation Zrotation
											JOINT RightHandIndex4
											{
												OFFSET -5.189026 0.000000 0.000000
												CHANNELS 3 Xrotation Yrotation Zrotation
												End Site
												{
													OFFSET 0.236702 5.183624 0.001972
												}
											}
										}
									}
								}
							}
						}
					}
				}
			}
		}
	}
	JOINT LeftUpLeg
	{
		OFFSET 14.073000 -7.904099 -1.463000
		CHANNELS 3 Xrotation Yrotation Zrotation
		JOINT LeftLeg
		{
			OFFSET -0.109806 -34.073280 4.093200
			CHANNELS 3 Xrotation Yrotation Zrotation
			JOINT LeftFoot
			{
				OFFSET 0.109806 -29.899420 -6.319000
				CHANNELS 3 Xrotation Yrotation Zrotation
				JOINT LeftToeBase
				{
					OFFSET 1.551100 -14.988700 20.535801
					CHANNELS 3 Xrotation Yrotation Zrotation
					JOINT LeftToe_End
					{
						OFFSET 0.221200 0.570800 13.248301
						CHANNELS 3 Xrotation Yrotation Zrotation
						End Site
						{
							OFFSET 0.000000 13.262435 0.000000
						}
					}
				}
			}
		}
	}
	JOINT RightUpLeg
	{
		OFFSET -13.839300 -7.904099 -1.463000
		CHANNELS 3 Xrotation Yrotation Zrotation
		JOINT RightLeg
		{
			OFFSET 0.109694 -34.073219 4.093300
			CHANNELS 3 Xrotation Yrotation Zrotation
			JOINT RightFoot
			{
				OFFSET -0.109694 -29.899384 -6.319200
				CHANNELS 3 Xrotation Yrotation Zrotation
				JOINT RightToeBase
				{
					OFFSET -1.551100 -14.988700 20.535801
					CHANNELS 3 Xrotation Yrotation Zrotation
					JOINT RightToe_End
					{
						OFFSET -0.221200 0.570900 13.248299
						CHANNELS 3 Xrotation Yrotation Zrotation
						End Site
						{
							OFFSET 0.000000 13.262440 0.000000
						}
					}
				}
			}
		}
	}
}
MOTION
Frames: 6
Frame Time: 0.033333
-0.077352 85.199677 0.427612 -4.050502 -0.000723 0.039739 1.267083 -0.154800 -0.123194 -0.840325 -0.293022 -0.285879 -0.840384 -0.308294 -0.268239 4.778598 0.073776 0.391246 1.430512 1.101205 -0.070987 -0.000000 0.000000 -0.000000 0.644186 8.642442 -12.742042 9.113590 -8.247969 -58.097678 -0.000006 -31.907318 -0.000020 3.582639 1.907200 -0.453634 0.907116 3.424352 -28.460389 2.974826 5.669311 -55.346467 0.000127 0.041864 -0.346883 -0.000001 0.000000 0.000000 3.554876 14.008464 4.224505 5.011301 15.997539 0.180379 -0.792114 1.275208 2.775106 -0.000000 -0.000000 0.000001 1.120785 -8.362753 11.224957 9.998966 12.810632 61.391018 0.000010 30.271050 -0.000015 1.173307 -1.956247 -0.352105 -0.725595 -13.690521 -5.116657 25.511499 -24.329556 -2.064762 -0.377357 -8.191345 -2.697051 0.000001 0.000001 0.000000 0.255827 -1.883715 13.940792 5.477149 -6.791465 77.747736 0.042466 -0.768874 6.322199 0.000001 0.000001 0.000002 -1.700220 -4.465976 10.004471 19.447557 -1.945332 -1.012220 -11.276821 16.244553 -9.371650 -0.000005 -0.000002 -0.000000 0.000000 0.000000 0.000000 -0.055013 -4.827747 -10.667332 18.617444 1.243723 0.131464 -12.593428 -11.840627 10.030623 -0.000065 0.000007 0.000004 -0.000000 0.000002 0.000000 
-0.029594 83.967194 0.784351 -3.555952 -0.442506 -0.182172 1.593479 -0.316366 -0.022505 0.010845 -0.634168 -0.013691 0.011355 -0.633845 0.020808 4.344019 0.018998 0.176327 1.906040 1.364044 -0.540857 -0.000000 -0.000000 -0.000000 0.655245 8.211270 -12.735523 8.276664 -9.168781 -56.731883 -0.000012 -34.672352 -0.000025 2.432532 2.689199 -1.062490 0.800107 3.226665 -28.136934 2.938218 5.643944 -54.974915 0.000160 0.047155 -0.390737 0.000000 -0.000000 -0.000000 3.396541 13.262257 4.359952 4.939089 16.027886 0.326901 -0.908049 1.181583 2.918115 -0.000001 -0.000000 0.000001 1.242466 -7.660947 11.714907 11.110294 11.327410 60.884197 0.000006 31.966218 -0.000008 0.455157 -3.005418 -0.540285 -0.594790 -14.273122 -4.966117 25.473701 -24.286862 -2.195288 -0.407246 -7.970591 -2.662492 0.000002 0.000002 -0.000001 0.273355 -1.946671 14.364036 5.394787 -6.773183 77.050292 0.041704 -0.761924 6.264879 -0.000000 -0.000001 0.000000 -4.379878 -5.126523 11.507835 25.392692 -1.931600 -3.768358 -15.331041 15.398527 -8.068000 -0.653798 0.000001 -0.000002 -0.000000 -0.000000 0.000000 -2.918311 -3.663406 -10.851916 24.427709 1.113045 0.231222 -15.910557 -11.872822 10.180561 -0.053700 -0.000002 0.000004 0.000000 -0.000000 -0.000000 
0.099614 82.859177 1.433116 -2.994598 -0.726640 -0.678631 1.972740 -0.537710 0.081873 1.045333 -1.090672 0.260503 1.047002 -1.075331 0.314379 4.023703 0.004083 0.074574 2.345229 1.869358 -1.002521 -0.000000 0.000000 -0.000000 0.610330 6.818427 -12.491903 6.872661 -9.202806 -55.238673 -0.000008 -38.827692 0.000002 1.980271 3.627907 -1.984206 0.586097 2.824752 -28.030784 2.753241 5.510296 -53.071789 0.001045 0.120395 -0.997689 0.000001 -0.000003 -0.000003 2.905717 11.964366 4.570015 4.771408 16.030133 0.655527 -1.305158 0.645816 3.344192 -0.000001 0.000000 -0.000003 1.408161 -6.488888 12.320701 10.999652 9.080707 60.520312 -0.000004 33.505653 -0.000007 0.926370 -3.790947 -0.455374 -0.620805 -14.424581 -4.263719 25.063786 -24.257164 -2.762749 -0.529304 -6.956872 -2.569259 0.000001 -0.000002 -0.000004 0.273455 -1.936564 16.788969 4.971829 -6.662540 73.435926 0.049524 -0.830074 6.827931 0.000001 0.000001 -0.000000 -6.393489 -5.463815 12.744249 30.377587 -1.986125 -5.412348 -18.943243 14.748738 -7.300832 -1.672171 -0.000003 0.000002 0.000000 0.000000 0.000000 -4.948589 -2.995340 -10.665380 28.621163 0.946751 0.328502 -18.679147 -10.913751 10.334888 -0.075994 0.000014 0.000001 0.000000 0.000002 0.000000 
0.444038 81.740044 2.275105 -2.134536 -1.144044 -1.396895 2.439089 -0.769919 0.308407 2.350361 -1.544672 0.663483 2.354094 -1.509637 0.730336 3.707742 -0.009730 -0.107458 2.718058 2.311192 -1.372977 -0.000000 -0.000000 -0.000000 0.545598 4.473814 -12.009382 4.682259 -7.959022 -53.908238 -0.000024 -42.764514 -0.000021 2.204102 4.239593 -2.640250 0.306731 2.325537 -28.690565 2.441286 5.262460 -49.749513 0.005522 0.276558 -2.292373 0.000002 -0.000000 -0.000001 2.098696 10.124765 4.775392 4.535004 16.024857 1.117520 -1.920863 -0.326771 3.968282 -0.000002 -0.000001 -0.000001 1.589817 -4.830070 13.006918 8.516793 7.107010 60.116279 0.000002 33.398566 -0.000010 2.419755 -4.011116 -0.550302 -0.862288 -14.043309 -2.836771 24.306954 -24.215454 -3.769712 -0.750929 -5.165942 -2.416961 -0.000000 -0.000001 -0.000000 0.203056 -1.813411 20.745880 4.241897 -6.401886 67.026183 0.063972 -0.942976 7.762153 -0.000000 -0.000001 -0.000002 -12.421288 -6.133553 14.482120 41.400526 -2.987072 -7.029120 -20.042058 13.712389 -7.607641 -5.997960 0.019974 -0.325380 -0.000000 0.000000 0.000000 -6.965018 -2.959351 -10.579846 32.062759 0.847425 0.416830 -21.174676 -8.850392 10.743762 -0.000092 0.000002 0.000003 0.000000 0.000000 0.000000 
1.033300 81.108063 3.345794 -0.729344 -1.931941 -2.061827 2.865633 -0.873198 0.556953 3.542580 -1.740003 1.050146 3.547945 -1.688252 1.116247 3.799431 -0.025582 -0.336768 3.082799 2.391105 -1.594840 -0.000001 0.000000 0.000000 0.608038 1.347847 -11.448760 2.951783 -4.527338 -53.104096 -0.000005 -44.934288 -0.000000 2.763722 4.352124 -1.959954 0.020369 1.946036 -31.011986 2.082090 4.937263 -45.710430 0.018817 0.509800 -4.228272 0.000000 -0.000000 0.000004 1.206911 8.173348 4.934566 4.287562 16.027432 1.601961 -2.527335 -1.556046 4.466060 -0.000001 -0.000002 0.000000 1.719491 -2.888979 13.555989 2.720834 7.159799 59.691332 0.000002 31.989758 -0.000012 3.829463 -3.915813 -1.357349 -1.371129 -13.268403 -1.109079 23.386701 -24.137007 -4.967530 -1.023592 -2.923914 -2.215519 -0.000001 -0.000001 -0.000002 0.020374 -1.603056 25.247845 3.379615 -5.965658 59.034056 0.069921 -0.985613 8.115454 -0.000000 0.000001 0.000002 -19.297748 -5.520794 16.331167 49.071405 -4.047507 -8.122350 -17.800585 11.451866 -7.997336 -9.067177 0.027231 -0.187087 0.000000 0.000000 0.000000 -8.633583 -3.821107 -10.911748 33.108475 0.830406 0.458638 -22.265657 -6.278636 11.490159 -0.000052 -0.000003 -0.000001 0.000000 -0.000000 -0.000000 
1.830678 81.659111 4.868974 1.531640 -3.223883 -2.331290 3.135321 -0.746937 0.607922 4.290460 -1.491602 1.152776 4.295486 -1.437119 1.204127 4.491931 -0.033411 -0.334437 3.437506 2.165637 -1.585841 -0.000002 -0.000000 0.000000 0.850139 -2.143949 -10.967097 3.646713 1.696858 -52.965412 0.000011 -45.529266 -0.000005 3.930415 3.934400 -0.485462 -0.361471 1.568865 -34.028604 1.721278 4.558769 -41.353500 0.042420 0.764693 -6.349977 0.000004 -0.000002 -0.000001 0.646292 6.745846 5.237923 4.044081 16.028040 2.077077 -3.105952 -2.878188 4.840042 0.000001 -0.000002 -0.000002 1.782979 -0.803760 13.873722 -5.669783 9.432510 59.368209 0.000003 32.411071 -0.000026 4.393748 -3.756163 -2.841939 -2.046429 -12.565671 -0.181554 22.507066 -23.999593 -6.028529 -1.309942 -0.483884 -1.976063 -0.000003 0.000001 0.000001 -0.246906 -1.491244 30.688597 2.522518 -5.361724 50.365675 0.059721 -0.911291 7.499729 -0.000003 0.000001 -0.000001 -24.431506 -1.830324 16.649213 46.089635 -3.005639 -7.598124 -15.380746 9.411888 -7.431549 -5.707484 -0.120652 0.843990 0.000000 -0.000001 -0.000000 -9.405000 -6.159046 -11.707245 29.294132 0.844390 0.377585 -20.574832 -2.561543 12.506056 -0.182649 0.000008 0.000000 -0.000000 -0.000000 0.000000 
